<svg width="170" height="170" viewBox="0 0 170 170" fill="none" xmlns="http://www.w3.org/2000/svg">
<rect x="19.9663" y="46.8973" width="29.5245" height="29.5245" rx="12.3684" stroke="#959593" stroke-width="7.18163" stroke-linecap="round" stroke-linejoin="round"/>
<rect x="60.2632" y="17.8035" width="47.8776" height="47.8776" rx="12.7673" fill="#65DDD3"/>
<path d="M84.7817 54.1443V48.1674H72.6253V43.1833L85.5111 24.3206H90.2926V43.163H93.98V48.1674H90.2926V54.1443H84.7817ZM84.7817 43.163V33.0124L77.9538 43.163H84.7817Z" fill="white"/>
<rect x="56.2734" y="51.3177" width="55.8571" height="55.8571" rx="12.7673" fill="#0066FF"/>
<path d="M73.0098 86.5472L78.9446 85.8272C79.1337 87.3399 79.6428 88.4964 80.472 89.2964C81.3011 90.0964 82.3048 90.4965 83.483 90.4965C84.7485 90.4965 85.8104 90.0164 86.6686 89.0564C87.5414 88.0963 87.9778 86.8017 87.9778 85.1726C87.9778 83.6307 87.5632 82.4088 86.7341 81.5069C85.9049 80.6051 84.894 80.1542 83.7012 80.1542C82.9157 80.1542 81.9775 80.3069 80.8865 80.6124L81.5629 75.6158C83.2212 75.6594 84.4867 75.303 85.3595 74.5466C86.2322 73.7757 86.6686 72.7575 86.6686 71.4919C86.6686 70.4155 86.3486 69.5573 85.7086 68.9173C85.0685 68.2772 84.2176 67.9572 83.1557 67.9572C82.1084 67.9572 81.2138 68.3209 80.472 69.0482C79.7301 69.7755 79.2792 70.8374 79.1192 72.2338L73.468 71.2737C73.8608 69.3391 74.4499 67.7972 75.2354 66.6481C76.0354 65.4844 77.1409 64.5753 78.5519 63.9207C79.9774 63.2516 81.5702 62.917 83.3303 62.917C86.3413 62.917 88.756 63.877 90.5743 65.7971C92.0725 67.3681 92.8216 69.1427 92.8216 71.121C92.8216 73.9284 91.287 76.1685 88.2178 77.8413C90.0506 78.2341 91.5125 79.1141 92.6034 80.4814C93.7089 81.8488 94.2617 83.4998 94.2617 85.4344C94.2617 88.2418 93.2362 90.6346 91.1852 92.6129C89.1342 94.5912 86.5813 95.5803 83.5267 95.5803C80.632 95.5803 78.2319 94.7512 76.3263 93.0929C74.4208 91.4201 73.3153 89.2382 73.0098 86.5472Z" fill="white"/>
<rect x="118.913" y="46.8973" width="29.5245" height="29.5245" rx="12.3684" stroke="#959593" stroke-width="7.18163" stroke-linecap="round" stroke-linejoin="round"/>
<path d="M8.46223 134.687H11.7179V129.957C11.7179 128.233 11.4306 126.28 11.2774 124.69H11.3732L12.7712 127.812L16.295 134.687H19.7805V120.439H16.5248V125.15C16.5248 126.854 16.7929 128.903 16.9844 130.416H16.8887L15.4907 127.256L11.9477 120.439H8.46223V134.687ZM27.2623 134.955C31.0542 134.955 32.9693 132.791 32.9693 127.984V120.439H29.6753V128.348C29.6753 131.048 28.8135 132.006 27.2623 132.006C25.6919 132.006 24.8875 131.048 24.8875 128.348V120.439H21.4786V127.984C21.4786 132.791 23.4512 134.955 27.2623 134.955ZM34.6296 134.687H37.6937V129.804C37.6937 128.386 37.4256 126.261 37.2533 124.863H37.3299L38.4789 128.271L40.4132 133.481H42.29L44.2051 128.271L45.3924 124.863H45.469C45.2967 126.261 45.0286 128.386 45.0286 129.804V134.687H48.1502V120.439H44.4349L42.2517 126.586C41.9836 127.41 41.7537 128.31 41.4665 129.191H41.3707C41.1026 128.31 40.8728 127.41 40.5855 126.586L38.3257 120.439H34.6296V134.687ZM49.892 134.687H55.2735C58.3759 134.687 60.8464 133.385 60.8464 130.474C60.8464 128.578 59.7548 127.505 58.3185 127.122V127.046C59.4675 126.605 60.1761 125.226 60.1761 123.963C60.1761 121.224 57.8206 120.439 54.8713 120.439H49.892V134.687ZM53.3201 126.088V123.043H54.7372C56.1736 123.043 56.8439 123.465 56.8439 124.48C56.8439 125.456 56.1927 126.088 54.7372 126.088H53.3201ZM53.3201 132.063V128.616H55.0245C56.6906 128.616 57.5141 129.076 57.5141 130.244C57.5141 131.47 56.6715 132.063 55.0245 132.063H53.3201ZM61.6759 134.687H70.9258V131.814H65.1039V128.789H69.8725V125.916H65.1039V123.273H70.7152V120.439H61.6759V134.687ZM75.6347 123.139H77.1668C78.7947 123.139 79.6565 123.579 79.6565 124.92C79.6565 126.261 78.7947 126.969 77.1668 126.969H75.6347V123.139ZM83.7356 134.687L80.5566 129.038C82.0312 128.348 83.0079 127.008 83.0079 124.92C83.0079 121.473 80.48 120.439 77.4349 120.439H72.2067V134.687H75.6347V129.67H77.2817L79.9054 134.687H83.7356ZM91.5018 134.955C94.949 134.955 96.9407 132.868 96.9407 130.493C96.9407 128.482 95.8874 127.295 94.1255 126.586L92.3445 125.878C91.0805 125.38 90.1804 125.073 90.1804 124.288C90.1804 123.522 90.8315 123.101 91.8848 123.101C92.9956 123.101 93.8765 123.484 94.8149 124.192L96.5194 122.047C95.2746 120.803 93.5318 120.171 91.8848 120.171C88.859 120.171 86.7141 122.086 86.7141 124.48C86.7141 126.548 88.1121 127.793 89.6059 128.386L91.4252 129.152C92.6509 129.67 93.4361 129.938 93.4361 130.761C93.4361 131.527 92.8424 132.006 91.5784 132.006C90.4485 132.006 89.1271 131.412 88.1121 130.55L86.1778 132.906C87.6525 134.266 89.6442 134.955 91.5018 134.955ZM97.7771 134.687H101.205V129.957H102.871C105.878 129.957 108.502 128.463 108.502 125.073C108.502 121.549 105.916 120.439 102.775 120.439H97.7771V134.687ZM101.205 127.256V123.139H102.603C104.25 123.139 105.169 123.637 105.169 125.073C105.169 126.471 104.365 127.256 102.699 127.256H101.205ZM109.393 134.687H112.821V120.439H109.393V134.687ZM114.556 134.687H117.812V129.957C117.812 128.233 117.524 126.28 117.371 124.69H117.467L118.865 127.812L122.389 134.687H125.874V120.439H122.618V125.15C122.618 126.854 122.887 128.903 123.078 130.416H122.982L121.584 127.256L118.041 120.439H114.556V134.687ZM127.649 134.687H130.905V129.957C130.905 128.233 130.617 126.28 130.464 124.69H130.56L131.958 127.812L135.482 134.687H138.967V120.439H135.711V125.15C135.711 126.854 135.98 128.903 136.171 130.416H136.075L134.677 127.256L131.134 120.439H127.649V134.687ZM140.742 134.687H149.992V131.814H144.17V128.789H148.939V125.916H144.17V123.273H149.781V120.439H140.742V134.687ZM154.701 123.139H156.233C157.861 123.139 158.722 123.579 158.722 124.92C158.722 126.261 157.861 126.969 156.233 126.969H154.701V123.139ZM162.802 134.687L159.623 129.038C161.097 128.348 162.074 127.008 162.074 124.92C162.074 121.473 159.546 120.439 156.501 120.439H151.273V134.687H154.701V129.67H156.348L158.971 134.687H162.802ZM49.7058 153.687H53.1338V148.248H57.9982V145.395H53.1338V142.273H58.8025V139.439H49.7058V153.687ZM65.3866 153.955C69.2742 153.955 71.9171 151.159 71.9171 146.486C71.9171 141.833 69.2742 139.171 65.3866 139.171C61.4989 139.171 58.8561 141.813 58.8561 146.486C58.8561 151.159 61.4989 153.955 65.3866 153.955ZM65.3866 151.006C63.5098 151.006 62.3607 149.263 62.3607 146.486C62.3607 143.729 63.5098 142.101 65.3866 142.101C67.2634 142.101 68.4316 143.729 68.4316 146.486C68.4316 149.263 67.2634 151.006 65.3866 151.006ZM76.4584 142.139H77.9905C79.6183 142.139 80.4801 142.579 80.4801 143.92C80.4801 145.261 79.6183 145.969 77.9905 145.969H76.4584V142.139ZM84.5593 153.687L81.3802 148.038C82.8548 147.348 83.8315 146.008 83.8315 143.92C83.8315 140.473 81.3036 139.439 78.2586 139.439H73.0304V153.687H76.4584V148.67H78.1054L80.7291 153.687H84.5593ZM90.3529 153.687H94.4512L98.7411 139.439H95.2556L93.6469 145.931C93.2447 147.463 92.9383 148.938 92.5361 150.489H92.4404C92.0191 148.938 91.7509 147.463 91.3296 145.931L89.7018 139.439H86.0822L90.3529 153.687ZM104.158 153.955C107.95 153.955 109.865 151.791 109.865 146.984V139.439H106.571V147.348C106.571 150.048 105.709 151.006 104.158 151.006C102.588 151.006 101.783 150.048 101.783 147.348V139.439H98.3745V146.984C98.3745 151.791 100.347 153.955 104.158 153.955ZM111.525 153.687H120.775V150.814H114.953V147.789H119.722V144.916H114.953V142.273H120.565V139.439H111.525V153.687Z" fill="#0066FF"/>
<path d="M29.1431 61.5399H40.3145" stroke="#959593" stroke-width="4.78776" stroke-linecap="round" stroke-linejoin="round"/>
<path d="M133.835 56.5925V67.764" stroke="#959593" stroke-width="4.78776" stroke-linecap="round" stroke-linejoin="round"/>
<path d="M128.25 61.6546H139.421" stroke="#959593" stroke-width="4.78776" stroke-linecap="round" stroke-linejoin="round"/>
</svg>
