<svg width="234" height="51" viewBox="0 0 234 51" fill="none" xmlns="http://www.w3.org/2000/svg">
<rect x="1.59999" y="16.8176" width="17.3646" height="17.3646" rx="7.34112" stroke="#959593" stroke-width="3.19999" stroke-linecap="round" stroke-linejoin="round"/>
<rect x="24.5884" y="0.929565" width="26.8233" height="26.8233" rx="7.15289" fill="#65DDD3"/>
<path d="M38.3249 21V17.6514H31.5143V14.8591L38.7335 4.2913H41.4124V14.8477H43.4782V17.6514H41.4124V21H38.3249ZM38.3249 14.8477V9.16088L34.4996 14.8477H38.3249Z" fill="white"/>
<rect x="22.3525" y="19.7059" width="31.2939" height="31.2939" rx="7.15289" fill="#0066FF"/>
<path d="M31.7292 39.4729L35.0542 39.0695C35.1601 39.9171 35.4454 40.565 35.9099 41.0132C36.3744 41.4614 36.9367 41.6855 37.5968 41.6855C38.3058 41.6855 38.9007 41.4166 39.3815 40.8787C39.8705 40.3409 40.115 39.6156 40.115 38.7028C40.115 37.839 39.8827 37.1544 39.4182 36.6492C38.9537 36.1439 38.3873 35.8913 37.719 35.8913C37.279 35.8913 36.7533 35.9768 36.1421 36.148L36.5211 33.3486C37.4501 33.3731 38.1591 33.1734 38.6481 32.7496C39.1371 32.3177 39.3815 31.7473 39.3815 31.0383C39.3815 30.4352 39.2022 29.9544 38.8437 29.5958C38.4851 29.2372 38.0084 29.0579 37.4134 29.0579C36.8267 29.0579 36.3255 29.2617 35.9099 29.6692C35.4942 30.0766 35.2416 30.6715 35.152 31.4539L31.9859 30.916C32.2059 29.8321 32.536 28.9683 32.9761 28.3245C33.4243 27.6725 34.0436 27.1632 34.8341 26.7965C35.6328 26.4216 36.5252 26.2342 37.5112 26.2342C39.1982 26.2342 40.551 26.772 41.5697 27.8478C42.4091 28.7279 42.8288 29.7221 42.8288 30.8305C42.8288 32.4033 41.969 33.6583 40.2495 34.5955C41.2763 34.8155 42.0953 35.3086 42.7065 36.0746C43.3259 36.8407 43.6355 37.7656 43.6355 38.8495C43.6355 40.4224 43.061 41.7629 41.9119 42.8713C40.7629 43.9796 39.3326 44.5338 37.6213 44.5338C35.9995 44.5338 34.6549 44.0692 33.5873 43.1402C32.5197 42.203 31.9003 40.9806 31.7292 39.4729Z" fill="white"/>
<rect x="57.0351" y="16.8176" width="17.3646" height="17.3646" rx="7.34112" stroke="#959593" stroke-width="3.19999" stroke-linecap="round" stroke-linejoin="round"/>
<path d="M7.15332 25.4329H13.4121" stroke="#959593" stroke-width="2.68233" stroke-linecap="round" stroke-linejoin="round"/>
<path d="M65.8071 22.6611V28.9199" stroke="#959593" stroke-width="2.68233" stroke-linecap="round" stroke-linejoin="round"/>
<path d="M62.6772 25.4971H68.936" stroke="#959593" stroke-width="2.68233" stroke-linecap="round" stroke-linejoin="round"/>
<path d="M87.183 42H89.003V38.139C89.003 37.034 88.86 35.825 88.769 34.785H88.834L89.809 36.852L92.591 42H94.541V32.38H92.721V36.215C92.721 37.307 92.864 38.581 92.968 39.582H92.903L91.941 37.502L89.146 32.38H87.183V42ZM100.352 42.182C102.705 42.182 104.07 40.869 104.07 37.671V32.38H102.224V37.84C102.224 39.842 101.496 40.518 100.352 40.518C99.2213 40.518 98.5323 39.842 98.5323 37.84V32.38H96.6083V37.671C96.6083 40.869 98.0123 42.182 100.352 42.182ZM106.125 42H107.854V37.983C107.854 37.073 107.698 35.734 107.607 34.824H107.659L108.426 37.086L109.921 41.129H111.026L112.508 37.086L113.288 34.824H113.34C113.249 35.734 113.106 37.073 113.106 37.983V42L114.861 42V32.38H112.729L111.13 36.878C110.922 37.476 110.753 38.113 110.545 38.737H110.48C110.285 38.113 110.103 37.476 109.895 36.878L108.257 32.38H106.125V42ZM116.961 42H120.393C122.512 42 124.124 41.103 124.124 39.166C124.124 37.866 123.357 37.138 122.317 36.891V36.826C123.136 36.54 123.63 35.63 123.63 34.746C123.63 32.952 122.122 32.38 120.146 32.38H116.961V42ZM118.885 36.293V33.849H120.029C121.186 33.849 121.758 34.187 121.758 35.032C121.758 35.799 121.225 36.293 120.003 36.293H118.885ZM118.885 40.518V37.723H120.224C121.55 37.723 122.252 38.113 122.252 39.049C122.252 40.05 121.537 40.518 120.224 40.518H118.885ZM125.549 42H131.594V40.388H127.473V37.814H130.853V36.202H127.473V33.979H131.451V32.38H125.549V42ZM135.211 33.901H136.459C137.694 33.901 138.37 34.252 138.37 35.292C138.37 36.319 137.694 36.839 136.459 36.839H135.211V33.901ZM140.671 42L138.422 38.061C139.527 37.632 140.255 36.735 140.255 35.292C140.255 33.082 138.656 32.38 136.641 32.38H133.287V42H135.211V38.36H136.55L138.526 42H140.671ZM147.447 42.182C149.67 42.182 150.983 40.843 150.983 39.27C150.983 37.879 150.216 37.138 149.046 36.657L147.785 36.124C146.966 35.799 146.277 35.552 146.277 34.863C146.277 34.226 146.823 33.849 147.668 33.849C148.461 33.849 149.098 34.135 149.709 34.642L150.684 33.433C149.904 32.64 148.786 32.198 147.668 32.198C145.718 32.198 144.34 33.407 144.34 34.98C144.34 36.384 145.315 37.164 146.29 37.567L147.577 38.113C148.435 38.477 149.02 38.698 149.02 39.413C149.02 40.089 148.487 40.518 147.486 40.518C146.641 40.518 145.731 40.089 145.042 39.452L143.937 40.778C144.873 41.675 146.16 42.182 147.447 42.182ZM152.426 42H154.35V38.581H155.637C157.704 38.581 159.355 37.593 159.355 35.396C159.355 33.121 157.717 32.38 155.585 32.38H152.426V42ZM154.35 37.06V33.901H155.442C156.768 33.901 157.47 34.278 157.47 35.396C157.47 36.501 156.833 37.06 155.507 37.06H154.35ZM160.837 42H162.761V32.38H160.837V42ZM164.868 42H166.688V38.139C166.688 37.034 166.545 35.825 166.454 34.785H166.519L167.494 36.852L170.276 42H172.226V32.38H170.406V36.215C170.406 37.307 170.549 38.581 170.653 39.582H170.588L169.626 37.502L166.831 32.38H164.868V42ZM174.345 42H176.165V38.139C176.165 37.034 176.022 35.825 175.931 34.785H175.996L176.971 36.852L179.753 42H181.703V32.38H179.883V36.215C179.883 37.307 180.026 38.581 180.13 39.582H180.065L179.103 37.502L176.308 32.38H174.345V42ZM183.823 42H189.868V40.388H185.747V37.814H189.127V36.202H185.747V33.979H189.725V32.38H183.823V42ZM193.485 33.901H194.733C195.968 33.901 196.644 34.252 196.644 35.292C196.644 36.319 195.968 36.839 194.733 36.839H193.485V33.901ZM198.945 42L196.696 38.061C197.801 37.632 198.529 36.735 198.529 35.292C198.529 33.082 196.93 32.38 194.915 32.38H191.561V42H193.485V38.36H194.824L196.8 42H198.945Z" fill="#363636"/>
<path d="M91.265 22.335H93.875C93.8 22.455 93.725 22.56 93.65 22.665C92.855 22.725 92.06 22.785 91.265 22.845V22.335ZM88.55 19.11V18.66H89.3V19.11H88.55ZM88.55 16.98H89.3V17.43H88.55V16.98ZM92 16.98V17.43H91.265V16.98H92ZM92 19.11H91.265V18.66H92V19.11ZM97.34 14.505C97.355 13.545 97.355 12.525 97.355 11.46H95.27C95.27 12.54 95.27 13.56 95.27 14.505H94.04V16.5H95.225C95.12 18.915 94.82 20.835 93.875 22.335V20.82H91.265V20.43H93.785V15.66H91.265V15.285H93.98V13.74H91.265V13.215C92.195 13.11 93.08 12.99 93.86 12.825L92.945 11.22C91.235 11.58 88.7 11.835 86.45 11.94C86.645 12.36 86.855 13.035 86.915 13.47C87.68 13.455 88.49 13.425 89.3 13.38V13.74H86.48V15.285H89.3V15.66H86.84V20.43H89.3V20.82H86.78V22.335H89.3V22.98C88.19 23.055 87.185 23.115 86.36 23.16L86.6 24.96C88.355 24.81 90.695 24.6 92.975 24.375C93.35 24.75 93.74 25.215 93.935 25.56C96.395 23.565 97.07 20.55 97.28 16.5H98.195C98.12 21 98 22.755 97.715 23.145C97.565 23.355 97.43 23.415 97.205 23.415C96.905 23.415 96.395 23.415 95.795 23.355C96.14 23.94 96.38 24.825 96.425 25.425C97.145 25.44 97.835 25.44 98.315 25.335C98.84 25.215 99.215 25.035 99.59 24.465C100.07 23.76 100.175 21.51 100.295 15.435C100.295 15.18 100.31 14.505 100.31 14.505H97.34ZM114.89 21.27C116.21 21.27 116.75 20.91 116.975 19.605C116.435 19.5 115.625 19.215 115.235 18.945C115.175 19.455 115.07 19.56 114.68 19.56H113.195C112.655 19.56 112.55 19.515 112.55 19.065V18.6H116.135V17.025H112.55V16.215H110.555V19.08C110.555 20.745 110.99 21.27 112.925 21.27H114.89ZM108.95 21.495C109.37 22.05 109.955 22.83 110.225 23.295L111.815 22.245C111.5 21.795 110.885 21.075 110.465 20.565L108.95 21.495ZM107.345 18.18L107.87 17.46V18L107.345 18.18ZM105.665 18.705C105.71 18.33 105.725 17.955 105.74 17.61C106.175 17.82 106.67 18.075 107.015 18.285C106.52 18.45 106.07 18.585 105.665 18.705ZM106.205 16.515L105.74 17.085V16.515H106.205ZM107.87 17.265C107.45 17.04 106.76 16.725 106.25 16.515H107.87V17.265ZM103.94 15.045V17.265C103.94 18.24 103.88 19.395 103.04 20.265C103.445 20.46 104.27 21.045 104.585 21.345C105.08 20.835 105.365 20.16 105.53 19.455L105.86 20.295C106.505 19.98 107.18 19.62 107.87 19.26V19.71C107.87 19.845 107.81 19.89 107.66 19.89C107.54 19.905 107.075 19.905 106.715 19.875C106.91 20.25 107.15 20.835 107.24 21.255C108.02 21.255 108.635 21.255 109.1 21.03C109.58 20.79 109.73 20.445 109.73 19.71V15.045H109.085L110.57 14.265C110.645 15.645 111.2 16.2 112.955 16.2H115.055C115.61 16.2 116.285 16.17 116.615 16.065C116.54 15.6 116.48 14.88 116.45 14.355C116.105 14.445 115.415 14.49 114.98 14.49H113.045C112.61 14.49 112.55 14.31 112.55 13.875V13.635H116.075V12.06H112.55V11.28H110.555V13.845C110.555 13.995 110.555 14.13 110.57 14.25C110.225 13.53 109.43 12.465 108.8 11.67L107.345 12.39C107.48 12.57 107.63 12.765 107.78 12.975L106.115 13.125C106.61 12.69 107.105 12.21 107.525 11.73L105.62 11.175C105.05 12 104.18 12.72 103.895 12.93C103.61 13.155 103.34 13.305 103.085 13.365C103.28 13.83 103.565 14.67 103.67 15.045C104.105 14.865 104.72 14.76 108.65 14.355C108.8 14.61 108.92 14.835 109.01 15.045H103.94ZM104.93 25.065C105.41 24.27 105.77 23.07 106.04 22.065L104.165 21.33C103.94 22.29 103.505 23.37 103.025 24.09L104.93 25.065ZM109.355 23.46C108.59 23.46 108.44 23.415 108.44 22.98V21.645H106.325V23.01C106.325 24.645 106.895 25.17 109.115 25.17H111.65C113.36 25.17 113.915 24.66 114.14 22.65C113.6 22.53 112.745 22.245 112.31 21.945C112.235 23.25 112.115 23.46 111.47 23.46H109.355ZM114.05 21.855C114.395 22.755 114.815 23.94 114.995 24.66L116.99 24.03C116.78 23.325 116.285 22.17 115.925 21.33L114.05 21.855ZM127.37 21.66L127.385 20.325L127.055 20.34V20.01H125.375V20.415L123.92 20.49C124.055 20.25 124.19 20.01 124.31 19.77H127.235V18.315C127.625 18.66 128.165 19.245 128.39 19.56C128.555 19.305 128.705 19.02 128.84 18.72C129.05 19.62 129.305 20.46 129.62 21.225C129.005 22.32 128.15 23.19 126.965 23.835C126.635 23.67 126.275 23.505 125.9 23.34C126.515 22.815 126.83 22.23 126.965 21.69L127.37 21.66ZM123.065 21.9L125.09 21.78C124.925 22.065 124.64 22.35 124.205 22.62C123.77 22.455 123.32 22.29 122.9 22.14L123.065 21.9ZM122.105 18.18H122.975V18.51H122.105V18.18ZM125.36 18.18V18.51H124.58V18.18H125.36ZM131.03 15.735C130.925 16.86 130.775 17.895 130.535 18.825C130.265 17.865 130.055 16.83 129.905 15.735H131.03ZM122.51 15.255V14.925H122.975V15.255H122.51ZM122.975 13.35V13.65H122.51V13.35H122.975ZM125.045 13.35V13.65H124.58V13.35H125.045ZM124.58 15.255V14.925H125.045V15.255H124.58ZM133.775 15.735V13.845H130.25C130.385 13.05 130.49 12.225 130.58 11.4L128.78 11.16C128.57 13.725 128.135 16.23 127.235 17.88V16.905H124.58V16.59H126.92V15.045H127.97V13.53H126.92V12.03H124.58V11.175H122.975V12.03H120.74V13.53H119.525V15.045H120.74V16.59H122.975V16.905H120.335V19.77H122.435C122.3 20.04 122.15 20.31 121.985 20.565C121.16 20.61 120.395 20.64 119.75 20.655L119.9 22.065L121.025 22.005C120.815 22.305 120.605 22.59 120.395 22.83C120.965 22.995 121.565 23.19 122.165 23.415C121.4 23.61 120.455 23.775 119.285 23.91C119.57 24.27 119.93 24.885 120.065 25.29C121.895 25.065 123.26 24.72 124.28 24.3C125.045 24.66 125.735 25.02 126.26 25.35L127.31 24.48C127.565 24.84 127.805 25.245 127.91 25.5C129.02 24.84 129.89 24.045 130.58 23.085C131.135 23.925 131.825 24.645 132.665 25.2C132.92 24.735 133.46 24.06 133.865 23.73C132.89 23.16 132.14 22.335 131.555 21.315C132.23 19.77 132.605 17.925 132.83 15.735H133.775ZM138.77 14.565H147.53V16.17H149.795V12.51H144.68C144.485 12.045 144.155 11.475 143.825 11.055L141.62 11.7C141.785 11.94 141.95 12.225 142.085 12.51H136.625V16.17H138.77V14.565ZM149.855 19.2H144.365V19.125C145.61 18.375 146.705 17.43 147.575 16.545L146.12 15.405L145.61 15.51H139.25V17.535H143.435C142.985 17.895 142.505 18.225 142.025 18.48V19.2H136.61V21.27H142.025V22.935C142.025 23.145 141.935 23.205 141.62 23.205C141.305 23.205 140.075 23.205 139.22 23.16C139.58 23.745 140.015 24.735 140.15 25.395C141.38 25.395 142.43 25.365 143.255 25.035C144.11 24.705 144.365 24.12 144.365 23.01V21.27H149.855V19.2ZM154.64 11.16C154.205 12.075 153.305 13.26 152.48 13.965C152.765 14.385 153.215 15.21 153.425 15.66C154.475 14.745 155.6 13.275 156.365 11.91L154.64 11.16ZM161.12 21.24V19.215H159.35V21.435C159.35 22.05 159.11 22.41 158.825 22.59C159.11 23.01 159.47 23.91 159.575 24.405C159.815 24.075 160.235 23.67 162.335 22.365C162.185 22.005 161.99 21.3 161.885 20.82L161.12 21.24ZM163.835 15.735H164.645C164.57 16.815 164.45 17.805 164.255 18.705C164.045 17.82 163.895 16.875 163.775 15.885L163.835 15.735ZM166.925 15.735V13.92H164.36C164.555 13.14 164.72 12.33 164.84 11.52L163.025 11.19C162.8 13.05 162.38 14.82 161.675 16.125V12.495H160.16V15H159.74V11.19H158.15V15H157.76V12.465H156.305V15.015L154.82 14.415C154.25 15.855 153.305 17.34 152.42 18.3C152.72 18.765 153.23 19.845 153.395 20.31C153.56 20.13 153.71 19.92 153.875 19.71V25.44H155.765V23.985C156.17 24.375 156.635 25.065 156.83 25.515C158.405 24.24 158.615 22.155 158.645 19.215H156.815C156.8 21.45 156.74 22.875 155.765 23.805V16.635C155.96 16.245 156.14 15.855 156.305 15.48V16.545H161.42C161.36 16.65 161.3 16.74 161.225 16.83C161.3 16.92 161.375 17.025 161.465 17.145H156.26V18.81H161.51V17.22C161.825 17.685 162.185 18.3 162.335 18.63C162.44 18.495 162.545 18.36 162.635 18.21C162.83 19.365 163.07 20.43 163.385 21.39C162.845 22.5 162.11 23.385 161.105 24.06C161.495 24.39 162.185 25.125 162.425 25.485C163.175 24.9 163.79 24.225 164.3 23.43C164.75 24.195 165.305 24.855 165.98 25.365C166.25 24.855 166.82 24.09 167.21 23.73C166.385 23.205 165.755 22.44 165.26 21.495C165.86 19.89 166.22 17.97 166.415 15.735H166.925ZM174.8 13.62H172.7L173.375 13.305C173.15 12.75 172.715 11.88 172.34 11.235L170.735 11.895C171.005 12.405 171.32 13.08 171.53 13.62H169.25V15.33H174.8V13.62ZM174.32 15.78H169.925V17.4H174.32V15.78ZM169.91 19.47H174.305V17.85H169.91V19.47ZM179.27 20.34V21.24H178.565V20.34H179.27ZM180.83 22.725V18.855H177.125V23.385H178.565V22.725H180.83ZM179.9 16.695V15.975H181.19V16.695H179.9ZM176.9 15.975H178.16V16.695H176.9V15.975ZM178.16 13.53V14.295H176.9V13.53H178.16ZM181.19 14.295H179.9V13.53H181.19V14.295ZM172.685 22.92H171.545V21.69H172.685V22.92ZM182.945 11.64H175.175V17.685C175.175 19.59 175.115 21.975 174.38 23.79V19.965H169.85V25.17H171.545V24.645H174.38V24.6C174.77 24.855 175.28 25.26 175.52 25.5C176.6 23.64 176.855 20.67 176.9 18.375H181.19V23.22C181.19 23.43 181.13 23.49 180.95 23.49C180.755 23.505 180.185 23.505 179.66 23.475C179.9 23.94 180.14 24.78 180.2 25.275C181.145 25.275 181.82 25.23 182.315 24.93C182.81 24.615 182.945 24.105 182.945 23.265V11.64ZM195.275 23.25V22.47H196.55V23.25H195.275ZM194.975 16.305L194.39 16.845C194.72 16.98 195.08 17.16 195.425 17.34H192.935C193.13 17.01 193.325 16.665 193.49 16.305H194.975ZM190.25 14.49H188.885V13.575H190.25V14.49ZM195.32 13.575H196.82V14.49H195.32V13.575ZM190.385 23.25H189.275V22.47H190.385V23.25ZM199.85 19.215V17.34H197.39L197.78 16.965C197.525 16.755 197.135 16.515 196.715 16.305H198.905V11.76H193.355V16.275L192.305 16.08V11.76H186.965V16.305H191.15C190.955 16.65 190.73 17.01 190.475 17.34H186.065V19.215H188.45C187.7 19.725 186.785 20.19 185.72 20.58C186.125 20.955 186.665 21.78 186.86 22.29C187.01 22.23 187.16 22.17 187.295 22.095V25.425H189.275V25.11H190.385V25.335H192.47V20.61H189.905C190.505 20.175 191.03 19.71 191.495 19.215H193.985C194.435 19.725 194.945 20.19 195.515 20.61H193.295V25.425H195.275V25.11H196.55V25.335H198.65V22.23L198.89 22.305C199.175 21.78 199.79 20.97 200.24 20.565C199.025 20.28 197.855 19.8 196.895 19.215H199.85ZM214.895 12.165H204.155V14.265H214.895V12.165ZM213.005 23.13C212.57 23.13 212.51 23.055 212.51 22.455V18.285H216.335V16.17H202.76V18.285H205.94C205.775 20.58 205.43 22.455 202.34 23.595C202.835 24.015 203.435 24.825 203.675 25.38C207.38 23.88 208.025 21.36 208.295 18.285H210.245V22.47C210.245 24.48 210.725 25.17 212.63 25.17H214.25C215.9 25.17 216.44 24.345 216.65 21.57C216.065 21.42 215.105 21.045 214.64 20.67C214.565 22.77 214.49 23.13 214.04 23.13H213.005ZM222.02 11.235C221.3 13.305 220.055 15.375 218.765 16.68C219.125 17.22 219.71 18.435 219.905 18.975C220.115 18.75 220.34 18.495 220.55 18.225V25.41H222.62V15.06C223.19 14.025 223.685 12.93 224.075 11.88L222.02 11.235ZM233.21 18.315H229.475V16.125H232.46V13.995H229.475V11.37H227.27V13.995H226.46C226.61 13.485 226.73 12.975 226.835 12.48L224.735 12.045C224.405 13.815 223.775 15.72 222.995 16.86C223.52 17.085 224.465 17.58 224.9 17.895C225.185 17.4 225.47 16.8 225.74 16.125H227.27V18.315H223.34V20.445H227.27V25.41H229.475V20.445H233.21V18.315Z" fill="#363636"/>
</svg>
