<svg width="13" height="15" viewBox="0 0 13 15" fill="none" xmlns="http://www.w3.org/2000/svg">
<g clip-path="url(#clip0)">
<path d="M12.592 1.93187L11.0865 0.411885C10.8253 0.148161 10.471 1.95022e-06 10.1016 0L5.10714 0C4.33788 0 3.71429 0.62959 3.71429 1.40625V2.8125H1.39286C0.623594 2.8125 0 3.44209 0 4.21875V13.5938C0 14.3704 0.623594 15 1.39286 15H7.89286C8.66212 15 9.28571 14.3704 9.28571 13.5938V12.1875H11.6071C12.3764 12.1875 13 11.5579 13 10.7812V2.92623C13 2.55327 12.8532 2.19559 12.592 1.93187ZM7.71875 13.5938H1.56696C1.52079 13.5938 1.4765 13.5752 1.44385 13.5423C1.4112 13.5093 1.39286 13.4646 1.39286 13.418V4.39453C1.39286 4.34791 1.4112 4.3032 1.44385 4.27024C1.4765 4.23727 1.52079 4.21875 1.56696 4.21875H3.71429V10.7812C3.71429 11.5579 4.33788 12.1875 5.10714 12.1875H7.89286V13.418C7.89286 13.4646 7.87451 13.5093 7.84186 13.5423C7.80921 13.5752 7.76493 13.5938 7.71875 13.5938ZM11.433 10.7812H5.28125C5.23507 10.7812 5.19079 10.7627 5.15814 10.7298C5.12549 10.6968 5.10714 10.6521 5.10714 10.6055V1.58203C5.10714 1.53541 5.12549 1.4907 5.15814 1.45774C5.19079 1.42477 5.23507 1.40625 5.28125 1.40625H8.35714V3.98438C8.35714 4.3727 8.66894 4.6875 9.05357 4.6875H11.6071V10.6055C11.6071 10.6521 11.5888 10.6968 11.5561 10.7298C11.5235 10.7627 11.4792 10.7812 11.433 10.7812ZM11.6071 3.28125H9.75V1.40625H10.0295C10.0757 1.40625 10.1199 1.42477 10.1526 1.45772L11.5562 2.87476C11.5723 2.89108 11.5851 2.91046 11.5939 2.93179C11.6026 2.95312 11.6071 2.97598 11.6071 2.99906V3.28125Z" fill="white"/>
</g>
<defs>
<clipPath id="clip0">
<rect width="13" height="15" fill="white"/>
</clipPath>
</defs>
</svg>
